<?xml version="1.0" encoding="UTF-8"?>
<svg xmlns="http://www.w3.org/2000/svg" xmlns:xlink="http://www.w3.org/1999/xlink" width="32px" height="30px" viewBox="0 0 32 30" version="1.1">
<g id="surface1">
<path style=" stroke:none;fill-rule:nonzero;fill:rgb(82.745099%,82.745099%,82.745099%);fill-opacity:1;" d="M 5.332031 15 C 5.332031 15.691406 5.929688 16.25 6.667969 16.25 L 16.785156 16.25 L 13.71875 19.113281 C 13.46875 19.347656 13.324219 19.667969 13.324219 20 C 13.324219 20.332031 13.46875 20.652344 13.71875 20.886719 C 13.96875 21.125 14.3125 21.257812 14.667969 21.257812 C 15.023438 21.257812 15.363281 21.125 15.613281 20.886719 L 20.945312 15.886719 C 21.066406 15.769531 21.164062 15.628906 21.226562 15.476562 C 21.359375 15.171875 21.359375 14.828125 21.226562 14.523438 C 21.164062 14.371094 21.066406 14.230469 20.945312 14.113281 L 15.613281 9.113281 C 15.089844 8.621094 14.242188 8.621094 13.71875 9.113281 C 13.195312 9.601562 13.195312 10.398438 13.71875 10.886719 L 16.785156 13.75 L 6.667969 13.75 C 5.929688 13.75 5.332031 14.308594 5.332031 15 Z M 22.667969 2.5 L 9.332031 2.5 C 7.125 2.5 5.332031 4.179688 5.332031 6.25 L 5.332031 10 C 5.332031 10.691406 5.929688 11.25 6.667969 11.25 C 7.402344 11.25 8 10.691406 8 10 L 8 6.25 C 8 5.558594 8.597656 5 9.332031 5 L 22.667969 5 C 23.402344 5 24 5.558594 24 6.25 L 24 23.75 C 24 24.441406 23.402344 25 22.667969 25 L 9.332031 25 C 8.597656 25 8 24.441406 8 23.75 L 8 20 C 8 19.308594 7.402344 18.75 6.667969 18.75 C 5.929688 18.75 5.332031 19.308594 5.332031 20 L 5.332031 23.75 C 5.332031 25.820312 7.125 27.5 9.332031 27.5 L 22.667969 27.5 C 24.875 27.5 26.667969 25.820312 26.667969 23.75 L 26.667969 6.25 C 26.667969 4.179688 24.875 2.5 22.667969 2.5 Z M 22.667969 2.5 "/>
</g>
</svg>
